HIERARCHY
ROOT Hips
{
	OFFSET -0.001795 -0.223333 0.028219
	CHANNELS 6 Xposition Yposition Zposition Zrotation Yrotation Xrotation 
	JOINT LeftUpLeg
	{
		OFFSET 0.069520 -0.091406 -0.006815
		CHANNELS 3 Zrotation Yrotation Xrotation
		JOINT LeftLeg
		{
			OFFSET 0.034277 -0.375199 -0.004496
			CHANNELS 3 Zrotation Yrotation Xrotation
			JOINT LeftFoot
			{
				OFFSET -0.013596 -0.397961 -0.043693
				CHANNELS 3 Zrotation Yrotation Xrotation
				JOINT LeftToe
				{
					OFFSET 0.026358 -0.055791 0.119288
					CHANNELS 3 Zrotation Yrotation Xrotation
					End Site
					{
						OFFSET 0.000000 0.000000 0.000000
					}
				}
			}
		}
	}
	JOINT RightUpLeg
	{
		OFFSET -0.067670 -0.090522 -0.004320
		CHANNELS 3 Zrotation Yrotation Xrotation
		JOINT RightLeg
		{
			OFFSET -0.038290 -0.382569 -0.008850
			CHANNELS 3 Zrotation Yrotation Xrotation
			JOINT RightFoot
			{
				OFFSET 0.015774 -0.398415 -0.042312
				CHANNELS 3 Zrotation Yrotation Xrotation
				JOINT RightToe
				{
					OFFSET -0.025372 -0.048144 0.123348
					CHANNELS 3 Zrotation Yrotation Xrotation
					End Site
					{
						OFFSET 0.000000 0.000000 0.000000
					}
				}
			}
		}
	}
	JOINT Spine
	{
		OFFSET -0.002533 0.108963 -0.026696
		CHANNELS 3 Zrotation Yrotation Xrotation
		JOINT Spine1
		{
			OFFSET 0.005487 0.135180 0.001092
			CHANNELS 3 Zrotation Yrotation Xrotation
			JOINT Spine2
			{
				OFFSET 0.001457 0.052922 0.025425
				CHANNELS 3 Zrotation Yrotation Xrotation
				JOINT Neck
				{
					OFFSET -0.002778 0.213870 -0.042857
					CHANNELS 3 Zrotation Yrotation Xrotation
					JOINT Head
					{
						OFFSET 0.005152 0.064970 0.051349
						CHANNELS 3 Zrotation Yrotation Xrotation
						End Site
						{
							OFFSET 0.000000 0.000000 0.000000
						}
					}
				}
				JOINT LeftShoulder
				{
					OFFSET 0.078845 0.121749 -0.034090
					CHANNELS 3 Zrotation Yrotation Xrotation
					JOINT LeftArm
					{
						OFFSET 0.090977 0.030469 -0.008868
						CHANNELS 3 Zrotation Yrotation Xrotation
						JOINT LeftForeArm
						{
							OFFSET 0.259612 -0.012772 -0.027456
							CHANNELS 3 Zrotation Yrotation Xrotation
							JOINT LeftHand
							{
								OFFSET 0.249234 0.008986 -0.001171
								CHANNELS 3 Zrotation Yrotation Xrotation
								End Site
								{
									OFFSET 0.000000 0.000000 0.000000
								}
							}
						}
					}
				}
				JOINT RightShoulder
				{
					OFFSET -0.081759 0.118833 -0.038615
					CHANNELS 3 Zrotation Yrotation Xrotation
					JOINT RightArm
					{
						OFFSET -0.096012 0.032551 -0.009143
						CHANNELS 3 Zrotation Yrotation Xrotation
						JOINT RightForeArm
						{
							OFFSET -0.253742 -0.013329 -0.021401
							CHANNELS 3 Zrotation Yrotation Xrotation
							JOINT RightHand
							{
								OFFSET -0.255298 0.007772 -0.005559
								CHANNELS 3 Zrotation Yrotation Xrotation
								End Site
								{
									OFFSET 0.000000 0.000000 0.000000
								}
							}
						}
					}
				}
			}
		}
	}
}
MOTION
Frames: 13
Frame Time: 0.050000
0.000000 0.820471 0.000000 7.717686 -5.600686 12.641606 15.900495 3.201774 -46.744474 -6.986721 2.178603 28.775643 -2.541003 -0.270508 11.704965 0.000000 0.000000 0.000000 -21.863365 -1.508030 -38.484815 8.155003 -1.949402 51.465140 -6.753633 -15.263093 -15.159062 0.000000 0.000000 0.000000 9.820396 -4.428832 35.291444 -0.873011 0.425701 -2.590124 -3.876074 13.644995 3.844888 14.039179 -4.492479 -22.450052 0.000000 0.000000 0.000000 -38.972625 -17.040015 2.467536 -29.006254 1.464730 -2.011985 -1.253951 -43.663364 1.683825 0.000000 0.000000 0.000000 23.130795 12.887374 9.948749 22.123594 25.508463 0.537932 -16.325557 47.060670 -3.867439 0.000000 0.000000 0.000000 
0.048445 0.803955 0.008640 5.933448 -10.737467 12.821448 16.108307 4.850506 -47.768347 -8.792989 3.822747 33.041684 0.574480 2.482112 4.156895 0.000000 0.000000 0.000000 -24.417482 -1.308143 -42.912940 10.375541 -2.320764 54.453240 -6.838092 -16.678194 -10.045689 0.000000 0.000000 0.000000 10.777408 -4.384111 39.319321 -1.919413 0.803153 -5.808291 -1.128441 14.348304 5.397046 13.882117 -3.978483 -25.524471 0.000000 0.000000 0.000000 -41.950586 -19.549579 5.793053 -27.826396 -2.067463 -1.492423 6.029857 -38.725999 -0.788134 0.000000 0.000000 0.000000 19.800805 13.519003 9.206671 25.638155 24.920051 0.960318 -17.660128 49.071646 -4.477057 0.000000 0.000000 0.000000 
0.096538 0.795282 0.016322 5.107991 -15.040717 11.954548 13.825374 5.356785 -49.417821 -7.783491 4.662919 39.552317 2.620970 4.763279 -2.107169 0.000000 0.000000 0.000000 -26.160423 -0.715898 -42.912538 10.265798 -1.252421 51.749715 -7.692424 -19.752117 -7.435335 0.000000 0.000000 0.000000 11.954056 -4.228532 42.531080 -1.992131 0.819666 -4.730253 -2.903349 11.877465 2.828940 12.889402 -4.618996 -21.493952 0.000000 0.000000 0.000000 -44.957630 -21.288222 9.669398 -22.831771 -4.039165 -1.199464 5.097562 -34.947154 -0.190732 0.000000 0.000000 0.000000 22.112390 16.812519 10.402756 24.737512 20.559025 0.475952 -18.955463 54.551377 -6.400073 0.000000 0.000000 0.000000 
0.139068 0.796962 0.022548 3.847803 -19.858506 13.768589 13.700841 7.132740 -51.374800 -9.670851 6.672925 41.619645 4.230758 7.811870 -3.588584 0.000000 0.000000 0.000000 -28.770753 -0.211930 -45.542791 11.743228 -1.500685 47.466558 -7.489716 -20.313860 -0.835640 0.000000 0.000000 0.000000 11.148683 -3.058605 44.987965 -1.102092 0.458540 -3.887639 -2.681795 11.590476 1.277137 11.737004 -3.877593 -22.543276 0.000000 0.000000 0.000000 -44.856169 -23.928043 13.310435 -23.627616 -8.392955 -0.703428 8.593974 -30.762776 -1.061292 0.000000 0.000000 0.000000 25.009727 18.014230 11.081364 22.546474 20.176472 0.409508 -22.317497 53.891674 -8.246266 0.000000 0.000000 0.000000 
0.175021 0.798718 0.028303 2.727403 -23.614034 14.285594 11.862317 7.951137 -53.549439 -8.180792 7.063493 45.613665 5.049117 9.455085 -3.393376 0.000000 0.000000 0.000000 -32.081784 0.119028 -45.002448 14.869946 -2.504597 41.012606 -7.375524 -20.799682 3.428193 0.000000 0.000000 0.000000 10.860982 -2.049081 47.102234 -0.511528 0.191092 -4.274408 -2.852451 10.764312 2.109902 13.326158 -5.282879 -20.895416 0.000000 0.000000 0.000000 -45.259297 -26.345507 17.043128 -21.456009 -10.788110 -0.616690 11.416670 -30.031423 -1.752263 0.000000 0.000000 0.000000 25.527426 19.114514 11.106670 24.435615 18.066647 0.392573 -26.583414 52.682811 -10.369054 0.000000 0.000000 0.000000 
0.203874 0.801746 0.034049 1.102655 -28.029113 15.097281 11.375461 9.424751 -54.249424 -7.487939 7.753738 47.607582 6.046690 11.398433 -3.137235 0.000000 0.000000 0.000000 -34.275382 0.908132 -44.998139 16.992795 -2.762655 36.874892 -6.645504 -19.913888 6.241341 0.000000 0.000000 0.000000 9.377668 -0.116734 50.273256 1.256561 -0.523380 -3.982206 -3.769563 12.564362 0.679739 14.756947 -6.296327 -19.240736 0.000000 0.000000 0.000000 -43.192551 -27.750012 17.010322 -22.265381 -13.176964 -0.083562 11.134163 -30.431933 -1.704579 0.000000 0.000000 0.000000 27.624832 18.674444 11.646145 24.264446 16.541509 0.097994 -29.211793 52.434222 -11.521493 0.000000 0.000000 0.000000 
0.225753 0.803379 0.039284 -0.006110 -30.849544 15.173503 9.844148 9.784266 -54.972065 -5.185884 7.230427 49.942739 6.587665 12.424821 -2.816095 0.000000 0.000000 0.000000 -35.473378 1.555642 -43.813347 18.966757 -2.995372 35.024346 -7.835301 -22.804768 8.292283 0.000000 0.000000 0.000000 8.770129 1.035086 51.218398 1.806885 -0.763366 -4.554115 -4.320305 12.570336 1.742529 16.316897 -7.469667 -18.661288 0.000000 0.000000 0.000000 -42.262052 -27.945674 17.430254 -21.334910 -13.806470 -0.159122 13.680221 -31.860753 -2.520398 0.000000 0.000000 0.000000 27.861238 18.913782 11.564220 27.867269 15.942386 0.184828 -30.560613 51.050864 -11.845554 0.000000 0.000000 0.000000 
0.240265 0.804247 0.042714 -1.418318 -33.821096 14.308466 9.876260 10.620500 -53.828224 -3.666650 7.327635 51.738065 7.048162 13.262746 -2.785136 0.000000 0.000000 0.000000 -35.146662 2.415242 -42.136810 21.061919 -3.119537 36.002795 -10.086383 -27.163078 9.967148 0.000000 0.000000 0.000000 7.852530 2.549709 52.726087 2.518229 -1.074942 -5.342655 -4.935581 13.543175 1.720197 17.278423 -9.024575 -15.267373 0.000000 0.000000 0.000000 -40.147814 -27.243271 15.916739 -22.010855 -13.735099 -0.092697 13.220676 -33.561363 -2.590384 0.000000 0.000000 0.000000 31.393629 17.408045 11.214432 29.336763 13.942675 -0.232888 -31.318778 51.936656 -12.497982 0.000000 0.000000 0.000000 
0.247243 0.803671 0.043059 -1.809543 -35.477799 14.197367 9.355630 10.567377 -52.879704 -2.600689 6.981865 51.156914 7.623671 14.472978 -4.488441 0.000000 0.000000 0.000000 -35.502261 2.853223 -40.335202 23.414509 -3.599423 37.650218 -13.661045 -33.157114 11.541651 0.000000 0.000000 0.000000 6.897764 3.142955 51.073681 2.316990 -0.990681 -4.455528 -4.653985 12.665628 1.680844 17.292805 -10.055278 -12.126646 0.000000 0.000000 0.000000 -39.788752 -26.190940 15.933656 -21.153189 -12.141517 -0.511987 15.457562 -34.928204 -3.396320 0.000000 0.000000 0.000000 33.516010 17.597390 10.838637 32.115714 11.321716 -0.573645 -29.375078 52.670531 -11.951330 0.000000 0.000000 0.000000 
0.248142 0.803758 0.039517 -2.492435 -37.621718 13.778688 10.504104 11.489530 -51.173035 -2.743971 7.606919 50.675152 8.034507 15.337487 -4.963169 0.000000 0.000000 0.000000 -35.036549 3.419891 -38.460601 24.544414 -3.458792 38.516195 -15.775193 -35.638585 14.559766 0.000000 0.000000 0.000000 6.207175 3.868496 50.291114 2.690130 -1.122645 -3.543258 -4.877206 12.804568 0.821601 17.974047 -11.125724 -10.089279 0.000000 0.000000 0.000000 -40.229902 -25.822923 15.909825 -19.348997 -11.350755 -0.623794 15.843915 -34.754720 -3.505933 0.000000 0.000000 0.000000 35.486849 16.793081 10.136545 33.395436 8.267218 -1.187842 -26.935743 54.338852 -11.294045 0.000000 0.000000 0.000000 
0.243578 0.804391 0.032280 -2.305005 -39.505792 13.641979 10.834660 11.983264 -50.163749 -2.400820 7.638308 49.650671 8.471018 16.196258 -4.594739 0.000000 0.000000 0.000000 -35.267265 3.845016 -38.091151 26.612373 -3.771396 39.047114 -24.023588 -42.725782 27.442973 0.000000 0.000000 0.000000 5.950579 4.038243 48.462757 3.030191 -1.253180 -3.514305 -4.652613 11.284285 1.674420 17.374623 -10.601907 -11.025514 0.000000 0.000000 0.000000 -38.769707 -23.254499 15.028793 -19.810020 -11.020774 -0.958332 15.740715 -35.647532 -3.576530 0.000000 0.000000 0.000000 35.198037 16.009370 8.036582 36.446420 5.739719 -1.612702 -20.607624 57.005354 -8.902763 0.000000 0.000000 0.000000 
0.234283 0.807233 0.021728 -2.089992 -41.997601 12.364938 13.002811 13.140520 -47.328976 -3.680038 8.961473 48.411572 8.861470 16.722203 -2.677840 0.000000 0.000000 0.000000 -34.216543 4.378099 -36.541881 26.639710 -3.045251 38.891853 -39.502229 -47.469635 50.767202 0.000000 0.000000 0.000000 5.413298 4.390254 46.585772 2.876599 -1.174114 -2.752822 -4.126938 10.446511 1.977359 17.054404 -10.701472 -10.377325 0.000000 0.000000 0.000000 -38.792828 -22.039500 15.180867 -20.371577 -10.390993 -1.245976 16.063292 -35.453918 -3.678318 0.000000 0.000000 0.000000 35.577237 15.811571 6.683492 38.367373 2.943310 -2.215330 -16.830644 57.062832 -7.218504 0.000000 0.000000 0.000000 
0.220154 0.811382 0.008072 -1.234582 -43.777849 11.750126 13.991769 13.476255 -45.318553 -4.058280 9.066160 46.020381 9.379797 17.347570 -0.269926 0.000000 0.000000 0.000000 -33.456778 4.702834 -35.748183 25.884995 -2.405682 40.232038 -49.682625 -45.954451 68.194338 0.000000 0.000000 0.000000 5.170482 4.180871 44.066156 2.963239 -1.193467 -2.796395 -3.834611 8.995820 1.906060 15.834349 -10.078508 -9.950742 0.000000 0.000000 0.000000 -39.894227 -18.755668 14.198074 -21.453329 -9.639912 -1.648236 13.952088 -36.551299 -3.096364 0.000000 0.000000 0.000000 35.075114 14.785515 4.388676 40.008494 0.045682 -2.812865 -8.895107 57.224845 -3.437491 0.000000 0.000000 0.000000 
